<svg viewBox="0 0 800 800" xmlns="http://www.w3.org/2000/svg"><path d="M623.9939854971735,488.0268033798339 L632.2563143856141,484.33473375411785 M632.2563143856141,484.33473375411785 L639.946745148611,480.5302331406462 M639.946745148611,480.5302331406462 L647.053844562055,476.6241848450224 M647.053844562055,476.6241848450224 L653.568222528042,472.62750312043573 M653.568222528042,472.62750312043573 L659.482482057293,468.5510915591374 M659.482482057293,468.5510915591374 L664.7911824095447,464.4057962181954 M664.7911824095447,464.4057962181954 L669.4907505041429,460.2023664969807 M669.4907505041429,460.2023664969807 L673.5793948779527,455.95140329076884 M673.5793948779527,455.95140329076884 L677.0570795390474,451.66335259453854 M677.0570795390474,451.66335259453854 L679.9253849569034,447.34843897632487 M679.9253849569034,447.34843897632487 L682.1874357666924,443.01665642079917 M682.1874357666924,443.01665642079917 L683.8478164246058,438.6777532124468 M683.8478164246058,438.6777532124468 L684.912486032643,434.3411819930947 M684.912486032643,434.3411819930947 L685.3886848862786,430.01612155042193 M685.3886848862786,430.01612155042193 L685.2847834476136,425.71142266618546 M685.2847834476136,425.71142266618546 L684.6102920591553,421.4356110602164 M684.6102920591553,421.4356110602164 L683.3756458760931,417.1968923311644 M683.3756458760931,417.1968923311644 L681.5922176607976,413.0031242194247 M681.5922176607976,413.0031242194247 L679.2721756256726,408.8618215718236 M679.2721756256726,408.8618215718236 L676.4284591618425,404.7801630105764 M676.4284591618425,404.7801630105764 L673.0745828357262,400.7649708224592 M673.0745828357262,400.7649708224592 L669.2246893864994,396.82272698349396 M669.2246893864994,396.82272698349396 L664.8933863493859,392.9595899136182 M664.8933863493859,392.9595899136182 L660.0957071130534,389.18136440195065 M660.0957071130534,389.18136440195065 L654.8470712501229,385.49354391663593 M654.8470712501229,385.49354391663593 L649.1631992209176,381.90129302685534 M649.1631992209176,381.90129302685534 L643.0600574780922,378.409464703874 M643.0600574780922,378.409464703874 L636.5538043599361,375.0226248662566 M636.5538043599361,375.0226248662566 L629.6607739124172,371.74503358226303 M629.6607739124172,371.74503358226303 L622.3974026336147,368.5806787362164 M622.3974026336147,368.5806787362164 L614.7801974071178,365.53327572511904 M614.7801974071178,365.53327572511904 L606.8257246105775,362.6062803617163 M606.8257246105775,362.6062803617163 L598.550563276343,359.8028982454848 M598.550563276343,359.8028982454848 L589.9712862876446,357.12610011560815 M589.9712862876446,357.12610011560815 L601.5350322880568,340.3085569342586 M601.5350322880568,340.3085569342586 L610.4724278829345,343.0085199347247 M610.4724278829345,343.0085199347247 L619.1107113424379,345.8345400827342 M619.1107113424379,345.8345400827342 L627.4336093508858,348.78396785175306 M627.4336093508858,348.78396785175306 L635.424830635495,351.8539221113563 M635.424830635495,351.8539221113563 L643.0680336489103,355.0412949574398 M643.0680336489103,355.0412949574398 L650.3468544984302,358.3427469521036 M650.3468544984302,358.3427469521036 L657.2449738701515,361.75467754018837 M657.2449738701515,361.75467754018837 L663.746079115754,365.2732234676142 M663.746079115754,365.2732234676142 L669.8339877267576,368.89424979630934 M669.8339877267576,368.89424979630934 L675.4926201232274,372.61333985485555 M675.4926201232274,372.61333985485555 L680.7060662779196,376.4257755662992 M680.7060662779196,376.4257755662992 L685.4586532246153,380.32653369945143 M685.4586532246153,380.32653369945143 L689.7349656583191,384.310285517063 M689.7349656583191,384.310285517063 L693.519932609569,388.37136972700256 M693.519932609569,388.37136972700256 L696.7988731942185,392.50380618230867 M696.7988731942185,392.50380618230867 L699.5575736664274,396.7012730888651 M699.5575736664274,396.7012730888651 L701.7823648929362,400.95711063855305 M701.7823648929362,400.95711063855305 L703.4601923353019,405.2643320130605 M703.4601923353019,405.2643320130605 L704.5786810958444,409.6155672645151 M704.5786810958444,409.6155672645151 L705.1262512622361,414.0031438737701 M705.1262512622361,414.0031438737701 L705.0921780201996,418.4190349392702 M705.0921780201996,418.4190349392702 L704.4666997645207,422.8548781859646 M704.4666997645207,422.8548781859646 L703.2411125710917,427.301992938058 M703.2411125710917,427.301992938058 L701.4078411370357,431.75137215989827 M701.4078411370357,431.75137215989827 L698.960570287745,436.1937193239207 M698.960570287745,436.1937193239207 L695.8942951618368,440.61944364995526 M695.8942951618368,440.61944364995526 L692.2054598624424,445.0186895529574 M692.2054598624424,445.0186895529574 L687.8920370327612,449.3813672977973 M687.8920370327612,449.3813672977973 L682.9535866616126,453.6971682869909 M682.9535866616126,453.6971682869909 L677.3914203060477,457.95559542128495 M677.3914203060477,457.95559542128495 L671.2085875730118,462.14599876146053 M671.2085875730118,462.14599876146053 L664.4100396764279,466.25762509561775 M664.4100396764279,466.25762509561775 L657.0026400801095,470.27963374116655 M657.0026400801095,470.27963374116655 L648.9952262993702,474.2011475104071 M648.9952262993702,474.2011475104071 L640.3987359488813,478.01132105277316 M640.3987359488813,478.01132105277316 L623.9939854971735,488.0268033798339 M585.4781846921187,358.6304868105386 L589.9712862876446,357.12610011560815 M617.7196221122205,485.9446031414645 L625.992295896888,482.2575695588784 M625.992295896888,482.2575695588784 L633.6786234300952,478.45459774255494 M633.6786234300952,478.45459774255494 L640.7663972639788,474.54711455918067 M640.7663972639788,474.54711455918067 L647.2456247127564,470.54659839748945 M647.2456247127564,470.54659839748945 L653.1083970842961,466.4644960453399 M653.1083970842961,466.4644960453399 L658.3489434068947,462.31221699065725 M658.3489434068947,462.31221699065725 L662.9634850463907,458.1010571979396 M662.9634850463907,458.1010571979396 L666.9501490611723,453.8421566368422 M666.9501490611723,453.8421566368422 L670.3089556700621,449.54649590449907 M670.3089556700621,449.54649590449907 L673.0416927057704,445.22482011682524 M673.0416927057704,445.22482011682524 L675.1517153343083,440.88762357656174 M675.1517153343083,440.88762357656174 L676.6440564046003,436.54513338584906 M676.6440564046003,436.54513338584906 L677.5251478572465,432.2072796621462 M677.5251478572465,432.2072796621462 L677.8027483469973,427.8836562161403 M677.8027483469973,427.8836562161403 L677.4859349577085,423.58354883044245 M677.4859349577085,423.58354883044245 L676.5848858939602,419.31587249238424 M676.5848858939602,419.31587249238424 L675.1108475438039,415.0892056965845 M675.1108475438039,415.0892056965845 L673.0760108220107,410.9117404919378 M673.0760108220107,410.9117404919378 L670.4934324354376,406.79132413778746 M670.4934324354376,406.79132413778746 L667.3769395275183,402.7354150802497 M667.3769395275183,402.7354150802497 L663.7410070601578,398.7511255911278 M663.7410070601578,398.7511255911278 L659.6007537098063,394.84517767905385 M659.6007537098063,394.84517767905385 L654.9718012353071,391.0239487156159 M654.9718012353071,391.0239487156159 L649.8701616031776,387.2934589323243 M649.8701616031776,387.2934589323243 L644.3123298101436,383.6593734583223 M644.3123298101436,383.6593734583223 L638.315031653769,380.12702019832403 M638.315031653769,380.12702019832403 L631.8952711345992,376.7014115069226 M631.8952711345992,376.7014115069226 L625.0702842069269,373.3872202393211 M625.0702842069269,373.3872202393211 L617.8574437133747,370.18881956606805 M617.8574437133747,370.18881956606805 L610.2742231845357,367.1102931527248 M610.2742231845357,367.1102931527248 L602.3382098485241,364.15542316496743 M602.3382098485241,364.15542316496743 L594.0669915718032,361.3277353156637 M594.0669915718032,361.3277353156637 L585.4781846921187,358.6304868105386 M623.9939854971735,488.0268033798339 L617.7196221122205,485.9446031414645 M585.8605952469198,345.46323757194784 L601.5350322880568,340.3085569342586 M585.8605952469198,345.46323757194784 L585.4781846921187,358.6304868105386 M585.8605952469198,345.46323757194784 L594.468588183479,348.1174730257028 M594.468588183479,348.1174730257028 L602.7585380415237,350.90011099051765 M602.7585380415237,350.90011099051765 L610.71279134342,353.80795220723303 M610.71279134342,353.80795220723303 L618.3137213837092,356.8375332367557 M618.3137213837092,356.8375332367557 L625.5437002883466,359.9851382766154 M625.5437002883466,359.9851382766154 L632.3852122339827,363.2467547807264 M632.3852122339827,363.2467547807264 L638.8208403788369,366.6180852110013 M638.8208403788369,366.6180852110013 L644.8333031032311,370.09453696460776 M644.8333031032311,370.09453696460776 L650.4055492315363,373.67118313147745 M650.4055492315363,373.67118313147745 L655.5208043918935,377.34278600363297 M655.5208043918935,377.34278600363297 L660.1625235055797,381.103775681339 M660.1625235055797,381.103775681339 L664.3146435701428,384.9482324122179 M664.3146435701428,384.9482324122179 L667.9614906771104,388.86988451871207 M667.9614906771104,388.86988451871207 L671.0878931982355,392.86212063753004 M671.0878931982355,392.86212063753004 L673.6793227687564,396.91794474227555 M673.6793227687564,396.91794474227555 L675.7218985320791,401.03001947201784 M675.7218985320791,401.03001947201784 L677.2025101134196,405.1906240936757 M677.2025101134196,405.1906240936757 L678.1089133611202,409.39169777106457 M678.1089133611202,409.39169777106457 L678.4298093861776,413.624798496473 M678.4298093861776,413.624798496473 L678.1549687189724,417.88115220391273 M678.1549687189724,417.88115220391273 L677.2752644982589,422.15161894508987 M677.2752644982589,422.15161894508987 L675.7828905473932,426.426754629662 M675.7828905473932,426.426754629662 L673.6713699034325,430.6967831420797 M673.6713699034325,430.6967831420797 L670.9356276529518,434.95163501582596 M670.9356276529518,434.95163501582596 L667.5722704698297,439.18097672821267 M667.5722704698297,439.18097672821267 L663.579476318653,443.37422681544535 M663.579476318653,443.37422681544535 L658.95719551655,447.5205709575927 M658.95719551655,447.5205709575927 L653.7072769451643,451.6090369164091 M653.7072769451643,451.6090369164091 L647.8334809320123,455.62849787551056 M647.8334809320123,455.62849787551056 L641.3415664465695,459.567714283908 M641.3415664465695,459.567714283908 L634.239437193562,463.4154089491586 M634.239437193562,463.4154089491586 L626.5370880627539,467.160272700646 M626.5370880627539,467.160272700646 L618.2467365508278,470.79104630440554 M640.3987359488813,478.01132105277316 L618.2467365508278,470.79104630440554 M618.2467365508278,470.79104630440554 L617.7196221122205,485.9446031414645" stroke="black"  stroke-width="4"  fill="red"/>
<path d="M596.3307914846322,338.8318468964148 L586.7864927525479,336.29086027094644 M586.7864927525479,336.29086027094644 L576.9753842765335,333.8866489439767 M576.9753842765335,333.8866489439767 L566.914267898853,331.6212786211048 M566.914267898853,331.6212786211048 L556.6198290786696,329.4966307358571 M556.6198290786696,329.4966307358571 L546.1085807439516,327.5144287695502 M546.1085807439516,327.5144287695502 L535.3969627460741,325.67621650194127 M535.3969627460741,325.67621650194127 L524.5012500196838,323.9833947582777 M524.5012500196838,323.9833947582777 L513.4376198257531,322.4372111705923 M513.4376198257531,322.4372111705923 L502.2221047933373,321.0387809870674 M502.2221047933373,321.0387809870674 L490.87063591203747,319.78909060170724 M490.87063591203747,319.78909060170724 L479.39903305227773,318.6889926428428 M479.39903305227773,318.6889926428428 L467.82300301721637,317.7392418669589 M467.82300301721637,317.7392418669589 L456.1582024348472,316.94045837576607 M456.1582024348472,316.94045837576607 L444.42017499776045,316.2931672381584 M444.42017499776045,316.2931672381584 L432.6243991236988,315.79778647277556 M432.6243991236988,315.79778647277556 L420.78633139816696,315.4546284674078 M420.78633139816696,315.4546284674078 L408.9213726033072,315.26391877963056 M408.9213726033072,315.26391877963056 L397.044875928368,315.2257679117374 M397.044875928368,315.2257679117374 L385.17221442003495,315.34020826670735 M385.17221442003495,315.34020826670735 L373.31879028984923,315.60716332178237 M373.31879028984923,315.60716332178237 L361.4999371812508,316.02646741630036 M361.4999371812508,316.02646741630036 L349.7310946396356,316.5978468199477 M349.7310946396356,316.5978468199477 L338.02774398595284,317.3209431903125 M338.02774398595284,317.3209431903125 L326.40538201099486,318.1952836862956 M326.40538201099486,318.1952836862956 L314.87959859514,319.2202935109978 M314.87959859514,319.2202935109978 L303.4660904241771,320.3952842291764 M303.4660904241771,320.3952842291764 L292.18061998136085,321.7194639329788 M292.18061998136085,321.7194639329788 L281.03905113894626,323.191899759365 M281.03905113894626,323.191899759365 L270.0573620065683,324.81154984817164 M270.0573620065683,324.81154984817164 L259.25167176645226,326.57723289556765 M259.25167176645226,326.57723289556765 L248.6381960038589,328.48762387973875 M248.6381960038589,328.48762387973875 L238.23329562772713,330.54125412070647 M238.23329562772713,330.54125412070647 L228.05343532196596,332.7364859346451 M228.05343532196596,332.7364859346451 L218.1152342027704,335.0715245727676 M218.1152342027704,335.0715245727676 L208.43542854874897,337.54439578201203 M208.43542854874897,337.54439578201203 L199.03085771971416,340.1529309217089 M199.03085771971416,340.1529309217089 L189.91847813588822,342.8947667913072 M189.91847813588822,342.8947667913072 L181.11535709426042,345.767332762005 M181.11535709426042,345.767332762005 L172.63862323303016,348.76783120213577 M172.63862323303016,348.76783120213577 L164.5054611812555,351.89322816549446 M164.5054611812555,351.89322816549446 L156.73312867473388,355.14025274248326 M156.73312867473388,355.14025274248326 L149.33886118562276,358.50536707347464 M149.33886118562276,358.50536707347464 L142.33989362995737,361.9847687336049 M142.33989362995737,361.9847687336049 L135.75340109690228,365.5743632158275 M135.75340109690228,365.5743632158275 L129.59644075697338,369.2697679996817 M129.59644075697338,369.2697679996817 L123.88599464165924,373.0662956774831 M123.88599464165924,373.0662956774831 L118.63878173268427,376.95893944646514 M118.63878173268427,376.95893944646514 L113.87132273932292,380.9423550493303 M113.87132273932292,380.9423550493303 L109.59981890795603,385.0108680002412 M109.59981890795603,385.0108680002412 L105.84011504641546,389.15846489796724 M105.84011504641546,389.15846489796724 L102.60757774731832,393.37876259733 M102.60757774731832,393.37876259733 L99.91711825257119,397.66501610998154 M99.91711825257119,397.66501610998154 L97.78300468248005,402.0101421147513 M97.78300468248005,402.0101421147513 L96.2188676047387,406.40665826286056 M96.2188676047387,406.40665826286056 L95.23751642789495,410.8467228041147 M95.23751642789495,410.8467228041147 L94.85096627966965,415.3221384149194 M94.85096627966965,415.3221384149194 L95.07020808426421,419.82433663587585 M95.07020808426421,419.82433663587585 L95.90522524946971,424.34438598948583 M95.90522524946971,424.34438598948583 L97.364819836229,428.873020121799 M97.364819836229,428.873020121799 L99.45651948261741,433.400639109254 M99.45651948261741,433.400639109254 L102.18654139221246,437.91731053471455 M102.18654139221246,437.91731053471455 L105.5595357856509,442.4128198409064 M105.5595357856509,442.4128198409064 L109.57865872401555,446.87667062661353 M109.57865872401555,446.87667062661353 L114.24534850858123,451.2981171461822 M114.24534850858123,451.2981171461822 L119.55927142978305,455.66620127430394 M119.55927142978305,455.66620127430394 L125.51824876090859,459.9697712073702 M125.51824876090859,459.9697712073702 L132.11810983201326,464.19754172904806 M132.11810983201326,464.19754172904806 L139.3526968500301,468.33810722920674 M139.3526968500301,468.33810722920674 L147.2136693130354,472.38002826729047 M147.2136693130354,472.38002826729047 L155.69058365946316,476.3118343212823 M155.69058365946316,476.3118343212823 L164.7707711815763,480.1220985323822 M164.7707711815763,480.1220985323822 L174.43926501261944,483.7995042864671 M174.43926501261944,483.7995042864671 L184.67887565120782,487.3328700139111 M184.67887565120782,487.3328700139111 L195.47008493264946,490.7112403973764 M195.47008493264946,490.7112403973764 L206.79109075925146,493.92393522231947 M206.79109075925146,493.92393522231947 L218.617906068879,496.9605860385172 M218.617906068879,496.9605860385172 L230.92425741499804,499.8112455354383 M230.92425741499804,499.8112455354383 L243.6817770155814,502.4664069629045 M243.6817770155814,502.4664069629045 L256.85999132870336,504.9170935666195 M256.85999132870336,504.9170935666195 L270.4264905687692,507.15489731557375 M270.4264905687692,507.15489731557375 L284.3469963811213,509.17204107323636 M284.3469963811213,509.17204107323636 L298.58551316412667,510.96145080154895 M298.58551316412667,510.96145080154895 L313.10450384287935,512.5167566478848 M313.10450384287935,512.5167566478848 L327.8649740047121,513.8324067543351 M327.8649740047121,513.8324067543351 L342.82675904963764,514.9036504775701 M342.82675904963764,514.9036504775701 L357.9486666137651,515.7265991550306 M357.9486666137651,515.7265991550306 L373.1886413506095,516.2982579445372 M373.1886413506095,516.2982579445372 L388.50404026180576,516.6165209786017 M388.50404026180576,516.6165209786017 L403.8518564701571,516.6802369720458 M403.8518564701571,516.6802369720458 L419.18887574445176,516.4891579466625 M419.18887574445176,516.4891579466625 L434.47190684385043,516.0439927767553 M434.47190684385043,516.0439927767553 L449.6581504067012,515.3463679179249 M449.6581504067012,515.3463679179249 L464.7052149906435,514.3988444316872 M464.7052149906435,514.3988444316872 L479.57142957118174,513.2048564799861 M479.57142957118174,513.2048564799861 L494.21610728507414,511.7687306266284 M494.21610728507414,511.7687306266284 L508.5996574138643,510.0956272936552 M508.5996574138643,510.0956272936552 L522.6837722954772,508.1915153313453 M522.6837722954772,508.1915153313453 L536.4316611042145,506.06310470724895 M536.4316611042145,506.06310470724895 L549.8081881618531,503.7178502577756 M549.8081881618531,503.7178502577756 L562.7799937795514,501.16383846017027 M562.7799937795514,501.16383846017027 L575.3156044297975,498.40977025722935 M575.3156044297975,498.40977025722935 L587.3856019341599,495.46489775398715 M587.3856019341599,495.46489775398715 L598.9626507936665,492.3389517072022 M598.9626507936665,492.3389517072022 L610.0216319726537,489.04210569844076 M610.0216319726537,489.04210569844076 L620.539618577477,485.584881966388 M620.539618577477,485.584881966388 L630.4959595742195,481.9781089820496 M630.4959595742195,481.9781089820496 L639.8723095783646,478.23286657959136 M639.8723095783646,478.23286657959136 L648.6525938075997,474.3604104079175 M648.6525938075997,474.3604104079175 L656.8229867748563,470.37211654865627 M656.8229867748563,470.37211654865627 L664.3719286062036,466.27943674681586 M664.3719286062036,466.27943674681586 L671.2900630069531,462.09384110233435 M671.2900630069531,462.09384110233435 L677.5701263679827,457.82675256032957 M677.5701263679827,457.82675256032957 L683.206974689029,453.489523689198 M683.206974689029,453.489523689198 L688.1974349514063,449.09337372456446 M688.1974349514063,449.09337372456446 L692.5402611336868,444.64936822147484 M692.5402611336868,444.64936822147484 L696.2360497929486,440.1683624500856 M696.2360497929486,440.1683624500856 L699.2870521180737,435.66097601913367 M699.2870521180737,435.66097601913367 L701.6972287559827,431.13756831553627 M701.6972287559827,431.13756831553627 L703.4720223763078,426.6082218838513 M703.4720223763078,426.6082218838513 L704.6183062396823,422.0827014172115 M704.6183062396823,422.0827014172115 L705.1442496016135,417.5704369667324 M705.1442496016135,417.5704369667324 L705.0592862353666,413.08053502916243 M705.0592862353666,413.08053502916243 L704.3738978781419,408.62175109795584 M704.3738978781419,408.62175109795584 L703.0996025492883,404.20245316506833 M703.0996025492883,404.20245316506833 L701.2488103062683,399.83067639334524 M701.2488103062683,399.83067639334524 L698.834790854369,395.5140780635943 M698.834790854369,395.5140780635943 L695.8714620701446,391.25993607696466 M695.8714620701446,391.25993607696466 L692.3734495751801,387.07516991330755 M692.3734495751801,387.07516991330755 L688.355888799793,382.9663421748073 M688.355888799793,382.9663421748073 L683.834403975042,378.93964701650344 M683.834403975042,378.93964701650344 L678.8250330882778,375.00092799787984 M678.8250330882778,375.00092799787984 L673.3441064744105,371.1556988188016 M673.3441064744105,371.1556988188016 L667.4083043471499,367.40912576922324 M667.4083043471499,367.40912576922324 L661.0344518125065,363.76605769364124 M661.0344518125065,363.76605769364124 L654.2395751620334,360.2310317315532 M654.2395751620334,360.2310317315532 L647.0408104483739,356.80827967616165 M647.0408104483739,356.80827967616165 L639.4553524362914,353.5017521066837 M639.4553524362914,353.5017521066837 L631.5004566855237,350.3151131782672 M631.5004566855237,350.3151131782672 L623.1933476501541,347.25177480674466 M623.1933476501541,347.25177480674466 L614.5512758326165,344.3148781351688 M614.5512758326165,344.3148781351688 L605.5913949198048,341.5073398437742 M605.5913949198048,341.5073398437742 L596.3307914846322,338.8318468964148 M596.3307914846322,338.8318468964148 L597.3385766854537,305.94818904738486 M597.3385766854537,305.94818904738486 L606.6507020818359,308.513361245805 M606.6507020818359,308.513361245805 L615.6611137017442,311.2052403895704 M615.6611137017442,311.2052403895704 L624.3526392811362,314.02126541730706 M624.3526392811362,314.02126541730706 L632.708034817334,316.95865526021953 M632.708034817334,316.95865526021953 L640.7099545514957,320.0144137820377 M640.7099545514957,320.0144137820377 L648.3410742396901,323.1852852664175 M648.3410742396901,323.1852852664175 L655.5840335925857,326.46777207456654 M655.5840335925857,326.46777207456654 L662.4215284788411,329.8581017416558 M662.4215284788411,329.8581017416558 L668.8363087440742,333.3522318440524 M668.8363087440742,333.3522318440524 L674.8112294131629,336.94582671873275 M674.8112294131629,336.94582671873275 L680.3293425488586,340.6342512205961 M680.3293425488586,340.6342512205961 L685.3738406342618,344.41256506723676 M685.3738406342618,344.41256506723676 L689.9282626278806,348.2754939393692 M689.9282626278806,348.2754939393692 L693.9764362241225,352.2174461550978 M693.9764362241225,352.2174461550978 L697.5025999854814,356.2324926137904 M697.5025999854814,356.2324926137904 L700.4914789139215,360.31434949957907 M700.4914789139215,360.31434949957907 L702.9283057984088,364.45638921069457 M702.9283057984088,364.45638921069457 L704.7990204986213,368.65163870992865 M704.7990204986213,368.65163870992865 L706.0902103011972,372.892759244266 M706.0902103011972,372.892759244266 L706.7893229419345,377.172047612971 M706.7893229419345,377.172047612971 L706.8846996998163,381.48147924692915 M706.8846996998163,381.48147924692915 L706.3657208138725,385.81265558487536 M706.3657208138725,385.81265558487536 L705.222817843237,390.1568389572166 M705.222817843237,390.1568389572166 L703.4476921090447,394.5049788053075 M703.4476921090447,394.5049788053075 L701.033346973171,398.8477009235091 M701.033346973171,398.8477009235091 L697.9742239419163,403.17532347682186 M697.9742239419163,403.17532347682186 L694.2662552209835,407.4778962936704 M694.2662552209835,407.4778962936704 L689.907093296386,411.74521676976394 M689.907093296386,411.74521676976394 L684.8960566467935,415.9668534197224 M684.8960566467935,415.9668534197224 L679.234319683592,420.1321702393734 M679.234319683592,420.1321702393734 L672.9249986363523,424.2303810888996 M672.9249986363523,424.2303810888996 L665.9731966874784,428.25056929080404 M665.9731966874784,428.25056929080404 L658.3861544568122,432.18174818285326 M658.3861544568122,432.18174818285326 L650.1732237756223,436.0128835427404 M650.1732237756223,436.0128835427404 L641.3459801542348,439.73295666477816 M641.3459801542348,439.73295666477816 L631.91828602824,443.3310195971712 M631.91828602824,443.3310195971712 L621.906275082297,446.79623836695737 M621.906275082297,446.79623836695737 L611.3283743653327,450.11794643066094 M611.3283743653327,450.11794643066094 L600.2053401679233,453.28571753145695 M600.2053401679233,453.28571753145695 L588.5602285161439,456.28941871634345 M588.5602285161439,456.28941871634345 L576.4183112607129,459.11925141586545 M576.4183112607129,459.11925141586545 L563.8071008189224,461.76584226229613 M563.8071008189224,461.76584226229613 L550.7562155967966,464.22027786144986 M550.7562155967966,464.22027786144986 L537.2973524341537,466.47417482175933 M537.2973524341537,466.47417482175933 L523.4641161276181,468.51974093866704 M523.4641161276181,468.51974093866704 L509.29190814549713,470.3497920405625 M509.29190814549713,470.3497920405625 L494.8178045430999,471.95786113810885 M494.8178045430999,471.95786113810885 L480.08041604570155,473.3381951285073 M480.08041604570155,473.3381951285073 L465.1196519788505,474.4858197729685 M465.1196519788505,474.4858197729685 L449.97653120662244,475.3965643917492 M449.97653120662244,475.3965643917492 L434.69306838332943,476.0671183519585 M434.69306838332943,476.0671183519585 L419.3120073494392,476.49501269174704 M419.3120073494392,476.49501269174704 L403.87650541339247,476.6786793714244 M403.87650541339247,476.6786793714244 L388.4301159199274,476.6174349952492 M388.4301159199274,476.6174349952492 L373.0164156808881,476.3115185962533 M373.0164156808881,476.3115185962533 L357.6787718373223,475.7620401554943 M357.6787718373223,475.7620401554943 L342.4601830217029,474.9710298266236 M342.4601830217029,474.9710298266236 L327.4030528997103,473.94137476427704 M327.4030528997103,473.94137476427704 L312.5489118736079,472.6768236270153 M312.5489118736079,472.6768236270153 L297.9382501355174,471.18195577605803 M297.9382501355174,471.18195577605803 L283.61037334627395,469.4621226344845 M283.61037334627395,469.4621226344845 L269.60311272363526,467.52346354545176 M269.60311272363526,467.52346354545176 L255.95273967356144,465.37279609078615 M255.95273967356144,465.37279609078615 L242.69378825146424,463.01761472801536 M242.69378825146424,463.01761472801536 L229.8589024397404,460.4660210613303 M229.8589024397404,460.4660210613303 L217.4787677515223,457.72666374867794 M217.4787677515223,457.72666374867794 L205.58194047413363,454.8087009353712 M205.58194047413363,454.8087009353712 L194.19485920830493,451.7217139640604 M194.19485920830493,451.7217139640604 L183.34165171060224,448.4756883731416 M183.34165171060224,448.4756883731416 L173.04423730679488,445.0809084748895 M173.04423730679488,445.0809084748895 L163.32222768906985,441.5479218245307 M163.32222768906985,441.5479218245307 L154.19288242464992,437.8874919979336 M154.19288242464992,437.8874919979336 L145.67121632905094,434.1105107059837 M145.67121632905094,434.1105107059837 L137.76992414513165,430.22797373860493 M137.76992414513165,430.22797373860493 L130.49945482050794,426.2509168014487 M130.49945482050794,426.2509168014487 L123.86813522952565,422.19034355166644 M123.86813522952565,422.19034355166644 L117.88209084531456,418.0572228199682 M117.88209084531456,418.0572228199682 L112.54544350322453,413.8624053651404 M112.54544350322453,413.8624053651404 L107.86030742147432,409.6166112993854 M107.86030742147432,409.6166112993854 L103.82693797541452,405.3303721723046 M103.82693797541452,405.3303721723046 L100.44380601358523,401.01401300246846 M100.44380601358523,401.01401300246846 L97.70765333071938,396.6776168001656 M97.70765333071938,396.6776168001656 L95.61371843999655,392.3309934077658 M95.61371843999655,392.3309934077658 L94.15566408352691,387.983679281219 M94.15566408352691,387.983679281219 L93.32583609786582,383.6448892380252 M93.32583609786582,383.6448892380252 L93.11530030018366,379.32351553404493 M93.11530030018366,379.32351553404493 L93.51393671982385,375.0281267308948 M93.51393671982385,375.0281267308948 L94.51061504198799,370.766940821138 M94.51061504198799,370.766940821138 L96.09317835053105,366.5478175878692 M96.09317835053105,366.5478175878692 L98.2486747610672,362.3782736967645 M98.2486747610672,362.3782736967645 L100.9633307910641,358.26547918293346 M100.9633307910641,358.26547918293346 L104.2227364115194,354.21621959707744 M104.2227364115194,354.21621959707744 L108.01183959606482,350.23695441475957 M108.01183959606482,350.23695441475957 L112.31513540564117,346.3337946457483 M112.31513540564117,346.3337946457483 L117.11664319008497,342.5124954258202 M117.11664319008497,342.5124954258202 L122.40002909578948,338.7784857604341 M122.40002909578948,338.7784857604341 L128.1486433113738,335.1368770192033 M128.1486433113738,335.1368770192033 L134.3456419694033,331.59245616318907 M134.3456419694033,331.59245616318907 L140.97392199390134,328.14970322187673 M140.97392199390134,328.14970322187673 L148.01630996055331,324.81280535502043 M148.01630996055331,324.81280535502043 L155.45551899899695,321.58567317511415 M155.45551899899695,321.58567317511415 L163.27420711638055,318.4719369783695 M163.27420711638055,318.4719369783695 L171.45503662107308,315.47497325912167 M171.45503662107308,315.47497325912167 L179.98065217634675,312.5979025409751 M179.98065217634675,312.5979025409751 L188.83377647017315,309.84361824128047 M188.83377647017315,309.84361824128047 L197.99719284544233,307.2147873951639 M197.99719284544233,307.2147873951639 L207.45375048718853,304.71385967959674 M207.45375048718853,304.71385967959674 L217.18641399678438,302.34308626917453 M217.18641399678438,302.34308626917453 L227.17826939308404,300.10453225363284 M227.17826939308404,300.10453225363284 L237.4125098583921,298.00007687699286 M237.4125098583921,298.00007687699286 L247.87244966334018,296.0314278738045 M247.87244966334018,296.0314278738045 L258.5415613874143,294.2001430408915 M258.5415613874143,294.2001430408915 L269.40342480327763,292.50761884758816 M269.40342480327763,292.50761884758816 L280.4417683909816,290.95511478170056 M280.4417683909816,290.95511478170056 L291.64041995396394,289.543753336118 M291.64041995396394,289.543753336118 L302.98335128964146,288.27452414554887 M302.98335128964146,288.27452414554887 L314.4546509785554,287.14831320411423 M314.4546509785554,287.14831320411423 L326.03851127765694,286.1658722637255 M326.03851127765694,286.1658722637255 L337.7191921087935,285.32785478695433 M337.7191921087935,285.32785478695433 L349.4810620634147,284.63480622528743 M349.4810620634147,284.63480622528743 L361.3085843978995,284.087175234807 M361.3085843978995,284.087175234807 L373.1862388182088,283.6853016696516 M373.1862388182088,283.6853016696516 L385.09854769558575,283.429445237991 M385.09854769558575,283.429445237991 L397.03014030604237,283.31976302795414 M397.03014030604237,283.31976302795414 L408.9655772798783,283.3563276576863 M408.9655772798783,283.3563276576863 L420.889448609266,283.53910831250244 M420.889448609266,283.53910831250244 L432.78636408581076,283.86800028887626 M432.78636408581076,283.86800028887626 L444.64088530082347,284.34278957116175 M444.64088530082347,284.34278957116175 L456.43751718680534,284.9631798763436 M456.43751718680534,284.9631798763436 L468.1607419419108,285.728774624974 M468.1607419419108,285.728774624974 L479.79497515690446,286.6390755673089 M479.79497515690446,286.6390755673089 L491.3245177106623,287.69349428505444 M491.3245177106623,287.69349428505444 L502.7336186054499,288.891314194611 M502.7336186054499,288.891314194611 L514.0064115677029,290.23172577854973 M514.0064115677029,290.23172577854973 L525.126916765608,291.7137921539678 M525.126916765608,291.7137921539678 L536.0790501210522,293.3364537475128 M536.0790501210522,293.3364537475128 L546.8465798812427,295.09852487559516 M546.8465798812427,295.09852487559516 L557.4131735752225,296.9986737556698 M557.4131735752225,296.9986737556698 L567.7623302247349,299.03543227428776 M567.7623302247349,299.03543227428776 L577.8774723921128,301.20716070853024 M577.8774723921128,301.20716070853024 L587.7418460325819,303.5120685175039 M587.7418460325819,303.5120685175039 L597.3385766854537,305.94818904738486 M587.7219337702736,341.6503370612494 L578.3564330151708,339.14201647516074 M578.3564330151708,339.14201647516074 L568.716737847887,336.77204748390943 M568.716737847887,336.77204748390943 L558.820432366576,334.54271953828027 M558.820432366576,334.54271953828027 L548.6850216494166,332.4561184211058 M548.6850216494166,332.4561184211058 L538.3279131427096,330.5141314788706 M538.3279131427096,330.5141314788706 L527.7663903820434,328.71847295996264 M527.7663903820434,328.71847295996264 L517.0176544185687,327.07067684165446 M517.0176544185687,327.07067684165446 L506.0987486767958,325.57212849640024 M506.0987486767958,325.57212849640024 L495.0266426708869,324.22404870376266 M495.0266426708869,324.22404870376266 L483.8182045512419,323.0275098654833 M483.8182045512419,323.0275098654833 L472.49019448055975,321.9834559620999 M472.49019448055975,321.9834559620999 L461.05927763579706,321.09268503120546 M461.05927763579706,321.09268503120546 L449.5420481662625,320.3558738368093 M449.5420481662625,320.3558738368093 L437.9550656911074,319.773571401647 M437.9550656911074,319.773571401647 L426.3147513563069,319.3462164597245 M426.3147513563069,319.3462164597245 L414.63759238581827,319.0741092858058 M414.63759238581827,319.0741092858058 L402.93992633259387,318.95745986768395 M402.93992633259387,318.95745986768395 L391.2381901437229,318.99634424020815 M391.2381901437229,318.99634424020815 L379.548718602003,319.19074128702306 M379.548718602003,319.19074128702306 L367.8879233618834,319.5405029790366 M367.8879233618834,319.5405029790366 L356.2722124942566,320.04537774004586 M356.2722124942566,320.04537774004586 L344.71805367242547,320.7049987805332 M344.71805367242547,320.7049987805332 L333.24191583263314,321.51886456007435 M333.24191583263314,321.51886456007435 L321.8603712651715,322.4863705309345 M321.8603712651715,322.4863705309345 L310.59005012804175,323.606774069316 M310.59005012804175,323.606774069316 L299.4476756090632,324.8792086650472 M299.4476756090632,324.8792086650472 L288.4500568335827,326.3026670821088 M288.4500568335827,326.3026670821088 L277.61412047170904,327.87600440895284 M277.61412047170904,327.87600440895284 L266.95683903756964,329.59791078896933 M266.95683903756964,329.59791078896933 L256.49537296174447,331.46693659802094 M256.49537296174447,331.46693659802094 L246.2469500659384,333.4814583051347 M246.2469500659384,333.4814583051347 L236.2289086646807,335.63966976115955 M236.2289086646807,335.63966976115955 L226.45870673204837,337.9395891586034 M226.45870673204837,337.9395891586034 L216.95389943403615,340.37903148258215 M216.95389943403615,340.37903148258215 L207.7321466088478,342.9556114849489 M207.7321466088478,342.9556114849489 L198.81118144361858,345.66672219293866 M198.81118144361858,345.66672219293866 L190.2087926902278,348.509523735579 M190.2087926902278,348.509523735579 L181.9428380198591,351.48093796699766 M181.9428380198591,351.48093796699766 L174.03117564062978,354.5776302236639 M174.03117564062978,354.5776302236639 L166.49169417814377,357.79600333762755 M166.49169417814377,357.79600333762755 L159.3422247784701,361.1321802939897 M159.3422247784701,361.1321802939897 L152.60050680300589,364.58197764204334 M152.60050680300589,364.58197764204334 L146.2842243733469,368.1409344767258 M146.2842243733469,368.1409344767258 L140.4108583909882,371.8042538518535 M140.4108583909882,371.8042538518535 L134.99769814918875,375.56681771503776 M134.99769814918875,375.56681771503776 L130.06175346294236,379.4231678164358 M130.06175346294236,379.4231678164358 L125.61973175453005,383.3675017164947 M125.61973175453005,383.3675017164947 L121.68790343883711,387.3936547582742 M121.68790343883711,387.3936547582742 L118.28213704777909,391.4951132182327 M118.28213704777909,391.4951132182327 L115.41770217672689,395.6649757137657 M115.41770217672689,395.6649757137657 L113.10924013694404,399.89597421756025 M113.10924013694404,399.89597421756025 L111.37072089125888,404.18045357627216 M111.37072089125888,404.18045357627216 L110.21524485831998,408.51040543615375 M110.21524485831998,408.51040543615375 L109.6550823793184,412.8774093939933 M109.6550823793184,412.8774093939933 L109.70140392805621,417.27271771463575 M109.70140392805621,417.27271771463575 L110.36438431696547,421.68717402489455 M110.36438431696547,421.68717402489455 L111.65288583802771,426.11131104256265 M111.65288583802771,426.11131104256265 L113.57449907630769,430.53529068325844 M113.57449907630769,430.53529068325844 L116.1353648553852,434.94896583715723 M116.1353648553852,434.94896583715723 L119.3401133656971,439.3418911677061 M119.3401133656971,439.3418911677061 L123.19168257804762,443.70334309165213 M123.19168257804762,443.70334309165213 L127.6913083491786,448.02234510297825 M127.6913083491786,448.02234510297825 L132.83836990849966,452.28770613974353 M132.83836990849966,452.28770613974353 L138.6302555162706,456.48807121494406 M138.6302555162706,456.48807121494406 L145.06238121662395,460.61192699560956 M145.06238121662395,460.61192699560956 L152.12800909325225,464.6476787648902 M152.12800909325225,464.6476787648902 L159.81824840573978,468.58367922081385 M159.81824840573978,468.58367922081385 L168.1219317788121,472.4082903260673 M168.1219317788121,472.4082903260673 L177.0255881486849,476.10994242065556 M177.0255881486849,476.10994242065556 L186.51349849384917,479.6771547982098 M186.51349849384917,479.6771547982098 L196.56748859149585,483.09865951957744 M196.56748859149585,483.09865951957744 L207.1671220403482,486.3634015621846 M207.1671220403482,486.3634015621846 L218.2896046631332,489.4606302889741 M218.2896046631332,489.4606302889741 L229.90982815636653,492.3799716976832 M229.90982815636653,492.3799716976832 L242.00045779653186,495.11146975277154 M242.00045779653186,495.11146975277154 L254.53194129485752,497.64567491551526 M254.53194129485752,497.64567491551526 L267.4727045069795,499.9736714334 M267.4727045069795,499.9736714334 L280.78914896838415,502.0871745922955 M280.78914896838415,502.0871745922955 L294.4458250833073,503.9785750924938 M294.4458250833073,503.9785750924938 L308.405599646966,505.6409720627609 M308.405599646966,505.6409720627609 L322.62980494801525,507.06826017360993 M322.62980494801525,507.06826017360993 L337.078406445535,508.2551439287895 M337.078406445535,508.2551439287895 L351.7101596989221,509.1971947276113 M351.7101596989221,509.1971947276113 L366.4829655242116,509.89086224332385 M366.4829655242116,509.89086224332385 L381.35383717498667,510.3335519913935 M381.35383717498667,510.3335519913935 L396.2794215768516,510.52357079751744 M396.2794215768516,510.52357079751744 L411.21592418607844,510.4602129998446 M411.21592418607844,510.4602129998446 L426.11961838504055,510.143707110788 M426.11961838504055,510.143707110788 L440.9468681222637,509.575262093751 M440.9468681222637,509.575262093751 L455.6544784485101,508.75701840523084 M455.6544784485101,508.75701840523084 L470.1998588046477,507.69204759120004 M470.1998588046477,507.69204759120004 L484.5413381917945,506.38435593369945 M484.5413381917945,506.38435593369945 L498.6382542521704,504.83879747335743 M498.6382542521704,504.83879747335743 L512.4512320356046,503.0610872271445 M512.4512320356046,503.0610872271445 L525.9423336655146,501.0577282300963 M525.9423336655146,501.0577282300963 L539.0752534590065,498.8359818391131 M539.0752534590065,498.8359818391131 L551.8154390674866,496.40380089137193 M551.8154390674866,496.40380089137193 L564.1303345905703,493.76980494431024 M564.1303345905703,493.76980494431024 L575.989312383122,490.9431704426209 M575.989312383122,490.9431704426209 L587.363936867935,487.9336090912212 M587.363936867935,487.9336090912212 L598.2279918786782,484.7513036396948 M598.2279918786782,484.7513036396948 L608.5575175874029,481.4068192112407 M608.5575175874029,481.4068192112407 L618.3308834898095,477.91106479379476 M618.3308834898095,477.91106479379476 L627.5287842324756,474.2752095619597 M627.5287842324756,474.2752095619597 L636.1342755153621,470.51063517512193 M636.1342755153621,470.51063517512193 L644.1327657644601,466.6288738659461 M644.1327657644601,466.6288738659461 L651.5119469557686,462.6415406142884 M651.5119469557686,462.6415406142884 L658.2618108219722,458.5602853849442 M658.2618108219722,458.5602853849442 L664.3745240665237,454.39673162695294 M664.3745240665237,454.39673162695294 L669.8444310369832,450.1624332613455 M669.8444310369832,450.1624332613455 L674.6679855112739,445.86884601722505 M674.6679855112739,445.86884601722505 L678.8435472597763,441.5272335566189 M678.8435472597763,441.5272335566189 L682.3714403818059,437.1486875751555 M682.3714403818059,437.1486875751555 L685.25376464368,432.7440603466021 M685.25376464368,432.7440603466021 L687.4943339959891,428.32394444235 M687.4943339959891,428.32394444235 L689.0985245385431,423.8986393151021 M689.0985245385431,423.8986393151021 L690.0732459115063,419.4781389327106 M690.0732459115063,419.4781389327106 L690.4267034407034,415.07208999669535 M690.4267034407034,415.07208999669535 L690.1684407386214,410.68981192282644 M690.1684407386214,410.68981192282644 L689.3091559606121,406.3402567859401 M689.3091559606121,406.3402567859401 L687.8605660853895,402.03201911781565 M687.8605660853895,402.03201911781565 L685.8353862334757,397.7732954315175 M685.8353862334757,397.7732954315175 L683.2471400193872,393.57194146888224 M683.2471400193872,393.57194146888224 L680.1101741701866,389.4353930030832 M680.1101741701866,389.4353930030832 L676.4394288784924,385.37075267003814 M676.4394288784924,385.37075267003814 L672.2504960632732,381.38471123114965 M672.2504960632732,381.38471123114965 L667.5594464483103,377.4836212837285 M667.5594464483103,377.4836212837285 L662.3827907571257,373.6734631182343 M662.3827907571257,373.6734631182343 L656.7373730113977,369.95986261049495 M656.7373730113977,369.95986261049495 L650.6403781375803,366.3481046691545 M650.6403781375803,366.3481046691545 L644.1091877416137,362.84314595796246 M644.1091877416137,362.84314595796246 L637.1613727073926,359.4496209159574 M637.1613727073926,359.4496209159574 L629.8146712747357,356.1718425129054 M629.8146712747357,356.1718425129054 L622.086868970852,353.01384178262174 M622.086868970852,353.01384178262174 L613.9958319762127,349.9793543080665 M613.9958319762127,349.9793543080665 L605.5594198723346,347.0718475366096 M605.5594198723346,347.0718475366096 L596.7955062598978,344.2945252738888 M596.7955062598978,344.2945252738888 L587.7219337702736,341.6503370612494 M595.1027699315866,306.6467221765326 L604.3648206770299,309.20378490535154 M604.3648206770299,309.20378490535154 L613.3230073581606,311.88776372817426 M613.3230073581606,311.88776372817426 L621.9599384227113,314.6960472616616 M621.9599384227113,314.6960472616616 L630.2582052343209,317.62578649958334 M630.2582052343209,317.62578649958334 L638.2003481163265,320.67389779910974 M638.2003481163265,320.67389779910974 L645.7688498537457,323.8370638376898 M645.7688498537457,323.8370638376898 L652.9462635051021,327.1116873196114 M652.9462635051021,327.1116873196114 L659.7151086451215,330.49392700847045 M659.7151086451215,330.49392700847045 L666.0580753438011,333.9796348052768 M666.0580753438011,333.9796348052768 L671.957917200138,337.56437954237833 M671.957917200138,337.56437954237833 L677.397584996025,341.2434271181227 M677.397584996025,341.2434271181227 L682.3602789639698,345.0117299367669 M682.3602789639698,345.0117299367669 L686.8294411950301,348.8639072245896 M686.8294411950301,348.8639072245896 L690.7889285287417,352.79424730288616 M690.7889285287417,352.79424730288616 L694.2230060950577,356.7966942926968 M694.2230060950577,356.7966942926968 L697.1164038371219,360.86486046911233 M697.1164038371219,360.86486046911233 L699.4544708045541,364.9919859219683 M699.4544708045541,364.9919859219683 L701.2231864684595,369.17096356482523 M701.2231864684595,369.17096356482523 L702.4093380311531,373.39432164216873 M702.4093380311531,373.39432164216873 L703.0005102931103,377.6542488778094 M703.0005102931103,377.6542488778094 L702.9852347746988,381.9425605003064 M702.9852347746988,381.9425605003064 L702.3531427343779,386.2507388571541 M702.3531427343779,386.2507388571541 L701.0949700100889,390.56992546782277 M701.0949700100889,390.56992546782277 L699.2027206392853,394.8909313586576 M699.2027206392853,394.8909313586576 L696.6697610857095,399.2042533962674 M696.6697610857095,399.2042533962674 L693.4909167041653,403.50009426228024 M693.4909167041653,403.50009426228024 L689.6626078292076,407.7683975231722 M689.6626078292076,407.7683975231722 L685.1829167361585,411.99883620172506 M685.1829167361585,411.99883620172506 L680.0517363979924,416.18088919775437 M680.0517363979924,416.18088919775437 L674.2707882234777,420.3038289253749 M674.2707882234777,420.3038289253749 L667.84381087448,424.3567894121762 M667.84381087448,424.3567894121762 L660.7765821844,428.3287959691774 M660.7765821844,428.3287959691774 L653.0769530456306,432.2087906826496 M653.0769530456306,432.2087906826496 L644.755045390881,435.98571663166194 M644.755045390881,435.98571663166194 L635.823194315683,439.64853973637753 M635.823194315683,439.64853973637753 L626.295971649605,443.18629123015376 M626.295971649605,443.18629123015376 L616.1903632184047,446.5881727285589 M616.1903632184047,446.5881727285589 L605.5255684765791,449.843544728316 M605.5255684765791,449.843544728316 L594.3231712890135,452.9420422815473 M594.3231712890135,452.9420422815473 L582.607040622725,455.8736126043023 M582.607040622725,455.8736126043023 L570.4032675074039,458.6285605225283 M570.4032675074039,458.6285605225283 L557.7401637407713,461.19763354591305 M557.7401637407713,461.19763354591305 L544.6481697680673,463.57208002336426 M544.6481697680673,463.57208002336426 L531.1597321506813,465.7436837821732 M531.1597321506813,465.7436837821732 L517.3091648767371,467.70482446317385 M517.3091648767371,467.70482446317385 L503.13259379869044,469.4485672365795 M503.13259379869044,469.4485672365795 L488.66775713296136,470.9686603053891 M488.66775713296136,470.9686603053891 L473.95384506867026,472.25961869211505 M473.95384506867026,472.25961869211505 L459.0312698453033,473.31672888217304 M459.0312698453033,473.31672888217304 L443.9416074009783,474.13613138170575 M443.9416074009783,474.13613138170575 L428.72721424560973,474.7147961019974 M428.72721424560973,474.7147961019974 L413.43114855687236,475.05059493574583 M413.43114855687236,475.05059493574583 L398.0968477774528,475.14227934492754 M398.0968477774528,475.14227934492754 L382.7680462927719,474.9894984944862 M382.7680462927719,474.9894984944862 L367.48831794019304,474.59283141387607 M367.48831794019304,474.59283141387607 L352.3010929886361,473.9537433873978 M352.3010929886361,473.9537433873978 L337.24925948873334,473.0745995044519 M337.24925948873334,473.0745995044519 L322.37499339097013,471.9586326135491 M322.37499339097013,471.9586326135491 L307.71959555584857,470.6099190905772 M307.71959555584857,470.6099190905772 L293.3232058046473,469.0333691049521 M293.3232058046473,469.0333691049521 L279.22465339095237,467.23466272495824 M279.22465339095237,467.23466272495824 L265.4613162649545,465.2202213460146 M265.4613162649545,465.2202213460146 L252.0688181533279,462.99717830597984 M252.0688181533279,462.99717830597984 L239.0810868776609,460.5732832120606 M239.0810868776609,460.5732832120606 L226.5300513586287,457.95689622106 M226.5300513586287,457.95689622106 L214.4456294073173,455.15690433128077 M214.4456294073173,455.15690433128077 L202.85556226706865,452.1826823361008 M202.85556226706865,452.1826823361008 L191.78543132579097,449.0440056274705 M191.78543132579097,449.0440056274705 L181.25849331573482,445.751025117294 M181.25849331573482,445.751025117294 L171.29575305459218,442.3141758147217 M171.29575305459218,442.3141758147217 L161.91588593573522,438.74413330223115 M161.91588593573522,438.74413330223115 L153.135237069386,435.0517541141677 M153.135237069386,435.0517541141677 L144.96784113405516,431.2480209173386 M144.96784113405516,431.2480209173386 L137.42544871818245,427.3439879197461 M137.42544871818245,427.3439879197461 L130.51762038915228,423.35071089206457 M130.51762038915228,423.35071089206457 L124.25168466029243,419.27923151986903 M124.25168466029243,419.27923151986903 L118.6329134219111,415.1404983191242 M118.6329134219111,415.1404983191242 L113.66451337546494,410.94535124924545 M113.66451337546494,410.94535124924545 L109.34777090942828,406.7044608699821 M109.34777090942828,406.7044608699821 L105.68206067180489,402.4283222023312 M105.68206067180489,402.4283222023312 L102.66508777065815,398.1271724595775 M102.66508777065815,398.1271724595775 L100.29284694140802,393.8110233741741 M100.29284694140802,393.8110233741741 L98.55978724075624,389.48959547442456 M98.55978724075624,389.48959547442456 L97.45894631553563,385.1723093270811 M97.45894631553563,385.1723093270811 L96.98198265103139,380.8682796505255 M96.98198265103139,380.8682796505255 L97.11934424278263,376.58627838472734 M97.11934424278263,376.58627838472734 L97.86036793069525,372.3347384841562 M97.86036793069525,372.3347384841562 L99.19334195362262,368.12175978221444 M99.19334195362262,368.12175978221444 L101.1056861265767,363.955056525758 M101.1056861265767,363.955056525758 L103.58392524620797,359.842022245738 M103.58392524620797,359.842022245738 L106.61387950444453,355.7896673716478 M106.61387950444453,355.7896673716478 L110.18075728046506,351.8046600217622 M110.18075728046506,351.8046600217622 L114.26915606550926,347.8933036720768 M114.26915606550926,347.8933036720768 L118.86324680624978,344.06157742574266 M118.86324680624978,344.06157742574266 L123.9467368106823,340.3150978532001 M123.9467368106823,340.3150978532001 L129.50303860283304,336.65916148007796 M129.50303860283304,336.65916148007796 L135.5152529146048,333.09874229381074 M135.5152529146048,333.09874229381074 L141.96631908812043,329.6385020201003 M141.96631908812043,329.6385020201003 L148.83894871345433,326.2827906898352 M148.83894871345433,326.2827906898352 L156.1157548203486,323.0356760319559 M156.1157548203486,323.0356760319559 L163.77930886735,319.9009486886339 M163.77930886735,319.9009486886339 L171.81212584901596,316.8821288456295 M171.81212584901596,316.8821288456295 L180.19669601878104,313.9824751268693 M180.19669601878104,313.9824751268693 L188.9155699219532,311.205009257959 M188.9155699219532,311.205009257959 L197.95135016122723,308.55252318018427 M197.95135016122723,308.55252318018427 L207.28666356716678,306.0275739375971 M207.28666356716678,306.0275739375971 L216.90430548863387,303.63253362632867 M216.90430548863387,303.63253362632867 L226.7871001552179,301.3695544668141 M226.7871001552179,301.3695544668141 L236.91802340664447,299.2406122890375 M236.91802340664447,299.2406122890375 L247.2801875798668,297.2475132869918 M247.2801875798668,297.2475132869918 L257.8567820467427,295.39187961085537 M257.8567820467427,295.39187961085537 L268.6311614581472,293.67518741697955 M268.6311614581472,293.67518741697955 L279.5868035784652,292.0987671870731 M279.5868035784652,292.0987671870731 L290.7072828149526,290.66379814501323 M290.7072828149526,290.66379814501323 L301.97634342440625,289.37133633672886 M301.97634342440625,289.37133633672886 L313.3777802501234,288.2223067139087 M313.3777802501234,288.2223067139087 L324.89555284493974,287.2175165076772 M324.89555284493974,287.2175165076772 L336.51368163110845,286.3576551935985 M336.51368163110845,286.3576551935985 L348.2162713212212,285.6433053346309 M348.2162713212212,285.6433053346309 L359.98750476058945,285.07494408714035 M359.98750476058945,285.07494408714035 L371.81163513658805,284.65294348106084 M371.81163513658805,284.65294348106084 L383.67296911898427,284.37758741055796 M383.67296911898427,284.37758741055796 L395.55580779562155,284.2490513636162 M395.55580779562155,284.2490513636162 L407.4445289138187,284.26741286289007 M407.4445289138187,284.26741286289007 L419.3234684178288,284.4326685525814 M419.3234684178288,284.4326685525814 L431.1769743228692,284.7447060957678 M431.1769743228692,284.7447060957678 L442.98934587623603,285.2033266768788 M442.98934587623603,285.2033266768788 L454.74490159915786,285.8082222596521 M454.74490159915786,285.8082222596521 L466.42786279162146,286.55899554200823 M466.42786279162146,286.55899554200823 L478.0223953776344,287.4551506964795 M478.0223953776344,287.4551506964795 L489.5125784374983,288.49607065096444 M489.5125784374983,288.49607065096444 L500.882429799981,289.68103938010006 M500.882429799981,289.68103938010006 L512.1158637630568,291.0092207110066 M512.1158637630568,291.0092207110066 L523.196680821612,292.4796518994288 M523.196680821612,292.4796518994288 L534.1085351646726,294.0912606074391 M534.1085351646726,294.0912606074391 L544.8350347268176,295.84281422072405 M544.8350347268176,295.84281422072405 L555.3595804711772,297.73296118316125 M555.3595804711772,297.73296118316125 L565.6655122128908,299.76018082583795 M565.6655122128908,299.76018082583795 L575.7360020642449,301.9228042565874 M575.7360020642449,301.9228042565874 L585.5540968759441,304.2189950534918 M585.5540968759441,304.2189950534918 L595.1027699315866,306.6467221765326 M595.1027699315866,306.6467221765326 L592.6388816192085,318.33171301415155 M592.6388816192085,318.33171301415155 L590.1786055946649,329.9995704178388 M590.1786055946649,329.9995704178388 L587.7219337702736,341.6503370612494" stroke="black"  stroke-width="4"  fill="red"/></svg>