<svg viewBox="0 0 800 800" xmlns="http://www.w3.org/2000/svg"><path d="M382.06146594338736,480.1603107025673 L389.41645089111034,476.6671462778922 M389.41645089111034,476.6671462778922 L396.21971963177486,473.07325067109815 M396.21971963177486,473.07325067109815 L402.4614017977549,469.38929755713104 M402.4614017977549,469.38929755713104 L408.13355980117285,465.62593230240697 M408.13355980117285,465.62593230240697 L413.2302873023011,461.79378212496476 M413.2302873023011,461.79378212496476 L417.74758032869397,457.9033819804411 M417.74758032869397,457.9033819804411 L421.6832065276558,453.96512881591804 M421.6832065276558,453.96512881591804 L425.0367119429793,449.98925666948736 M425.0367119429793,449.98925666948736 L427.80931439076744,445.9858215584188 M427.80931439076744,445.9858215584188 L430.00378402429374,441.9646229908332 M430.00378402429374,441.9646229908332 L431.62437528309135,437.9352287120231 M431.62437528309135,437.9352287120231 L432.6767270396447,433.90692006562045 M432.6767270396447,433.90692006562045 L433.1677519288354,429.8886932759163 M433.1677519288354,429.8886932759163 L433.10555670673205,425.88921823213127 M433.10555670673205,425.88921823213127 L432.4993241324403,421.9168513453402 M432.4993241324403,421.9168513453402 L431.359269970131,417.97962314781427 M431.359269970131,417.97962314781427 L429.69644463310146,414.0852121178455 M429.69644463310146,414.0852121178455 L427.5227925657755,410.2409532775696 M427.5227925657755,410.2409532775696 L424.850925622786,406.4538483629498 M424.850925622786,406.4538483629498 L421.6941313443209,402.73054712697154 M421.6941313443209,402.73054712697154 L418.06624186902104,399.0773478339287 M418.06624186902104,399.0773478339287 L413.9815975378465,395.5002245628453 M413.9815975378465,395.5002245628453 L409.4549438195353,392.0048093797783 M409.4549438195353,392.0048093797783 L404.5013923398901,388.59641727166803 M404.5013923398901,388.59641727166803 L399.13634498048873,385.2800267193957 M399.13634498048873,385.2800267193957 L393.37544532112474,382.06033157433194 M393.37544532112474,382.06033157433194 L387.2345262552411,378.94170963611907 M387.2345262552411,378.94170963611907 L380.7295934860134,375.9282486779399 M380.7295934860134,375.9282486779399 L373.8767134104577,373.0237664251541 M373.8767134104577,373.0237664251541 L366.69202547892553,370.2318168238874 M366.69202547892553,370.2318168238874 L359.1917513109265,367.55567855142226 M359.1917513109265,367.55567855142226 L351.39206064264897,364.9984093479327 M351.39206064264897,364.9984093479327 L361.8815250801989,349.7292493255436 M361.8815250801989,349.7292493255436 L369.7911826489866,352.2290313859248 M369.7911826489866,352.2290313859248 L377.4239137654939,354.84072695218737 M377.4239137654939,354.84072695218737 L384.7651406262688,357.5618531657829 M384.7651406262688,357.5618531657829 L391.80026585870564,360.38971932774973 M391.80026585870564,360.38971932774973 L398.51466003713847,363.3214279816683 M398.51466003713847,363.3214279816683 L404.89370013535836,366.3538660958298 M404.89370013535836,366.3538660958298 L410.9227870700422,369.48368099177327 M410.9227870700422,369.48368099177327 L416.5873932887248,372.70729391989045 M416.5873932887248,372.70729391989045 L421.87306143417686,376.0208677573346 M421.87306143417686,376.0208677573346 L426.7654958790539,379.42030673010447 M426.7654958790539,379.42030673010447 L431.25056962960537,382.90124682576356 M431.25056962960537,382.90124682576356 L435.31435961908403,386.4590533357244 M435.31435961908403,386.4590533357244 L438.9432581984288,390.08879870587356 M438.9432581984288,390.08879870587356 L442.1239418205322,393.7852794806536 M442.1239418205322,393.7852794806536 L444.84348226814257,397.54298421607734 M444.84348226814257,397.54298421607734 L447.08940037482455,401.35610090683 M447.08940037482455,401.35610090683 L448.8497171463663,405.21852407031685 M448.8497171463663,405.21852407031685 L450.1131078455303,409.1238325393659 M450.1131078455303,409.1238325393659 L450.86878826636234,413.06529928621995 M450.86878826636234,413.06529928621995 L451.1067859055046,417.035903763917 M451.1067859055046,417.035903763917 L450.81791864783327,421.02831450759743 M450.81791864783327,421.02831450759743 L449.99389940511867,425.03490538278584 M449.99389940511867,425.03490538278584 L448.62743865730033,429.04777752479436 M448.62743865730033,429.04777752479436 L446.71225071414824,433.05874086984466 M446.71225071414824,433.05874086984466 L444.2432492942545,437.05935395483783 M444.2432492942545,437.05935395483783 L441.21655534715524,441.04092352658165 M441.21655534715524,441.04092352658165 L437.6295970103589,444.99453012056 M437.6295970103589,444.99453012056 L433.4812304755535,448.9110491496603 M433.4812304755535,448.9110491496603 L428.7717679224661,452.78118743918475 M428.7717679224661,452.78118743918475 L423.503074040555,456.59548247067005 M423.503074040555,456.59548247067005 L417.6786373456873,460.3443629235704 M417.6786373456873,460.3443629235704 L411.3036345265283,464.0181644750997 M411.3036345265283,464.0181644750997 L404.3849726217601,467.60716754636155 M404.3849726217601,467.60716754636155 L396.93138631723343,471.1016518038007 M396.93138631723343,471.1016518038007 L382.06146594338736,480.1603107025673 M347.31979078468635,366.3680068337946 L351.39206064264897,364.9984093479327 M376.3771297164129,478.282226046078 L383.5191119950467,474.8995065416012 M383.5191119950467,474.8995065416012 L390.1293999894783,471.41892512975204 M390.1293999894783,471.41892512975204 L396.19822542285283,467.85067721007096 M396.19822542285283,467.85067721007096 L401.7177889177756,464.2049820895929 M401.7177889177756,464.2049820895929 L406.68214007834365,460.49202195147507 M406.68214007834365,460.49202195147507 L411.0871148538597,456.72189658810623 M411.0871148538597,456.72189658810623 L414.9303350509698,452.9046032661929 M414.9303350509698,452.9046032661929 L418.2110782117269,449.0499840822566 M418.2110782117269,449.0499840822566 L420.9302026807204,445.16770288242486 M420.9302026807204,445.16770288242486 L423.09010730008333,441.2672227256456 M423.09010730008333,441.2672227256456 L424.6945618506886,437.3577545573981 M424.6945618506886,437.3577545573981 L425.7487294220665,433.4482756945547 M425.7487294220665,433.4482756945547 L426.2589746589126,429.54747145896346 M426.2589746589126,429.54747145896346 L426.23283185713115,425.66374707933784 M426.23283185713115,425.66374707933784 L425.67887890010206,421.8051992468878 M425.67887890010206,421.8051992468878 L424.6067070157933,417.97962314781427 M424.6067070157933,417.97962314781427 L423.02673432636266,414.1944826965843 M423.02673432636266,414.1944826965843 L420.95024094327994,410.45691796040137 M420.95024094327994,410.45691796040137 L418.3891758900761,406.77375409782604 M418.3891758900761,406.77375409782604 L415.3561613745094,403.1514790225032 M415.3561613745094,403.1514790225032 L411.86437151435507,399.5962610942754 M411.86437151435507,399.5962610942754 L407.9274859317054,396.1139377377839 M407.9274859317054,396.1139377377839 L403.55958482915867,392.7100446924873 M403.55958482915867,392.7100446924873 L398.7751576286863,389.38978676206557 M398.7751576286863,389.38978676206557 L393.5889653831222,386.15808023170354 M393.5889653831222,386.15808023170354 L388.016048763086,383.01953799113073 M388.016048763086,383.01953799113073 L382.071643144935,379.9784836577027 M382.071643144935,379.9784836577027 L375.7711357234857,377.03896790439757 M375.7711357234857,377.03896790439757 L369.1300669052416,374.204764266072 M369.1300669052416,374.204764266072 L362.1640448520395,371.4793937911075 M362.1640448520395,371.4793937911075 L354.88871591027373,368.8661319958007 M354.88871591027373,368.8661319958007 L347.31979078468635,366.3680068337946 M382.06146594338736,480.1603107025673 L376.3771297164129,478.282226046078 M347.67635470657456,354.4217438085161 L361.8815250801989,349.7292493255436 M347.67635470657456,354.4217438085161 L347.31979078468635,366.3680068337946 M347.67635470657456,354.4217438085161 L355.2623218014213,356.88005351949596 M355.2623218014213,356.88005351949596 L362.55426653907864,359.451705669475 M362.55426653907864,359.451705669475 L369.5364441978279,362.1337259672603 M369.5364441978279,362.1337259672603 L376.19317295534756,364.92289652363775 M376.19317295534756,364.92289652363775 L382.5088076153751,367.81575780698296 M382.5088076153751,367.81575780698296 L388.4677691971593,370.80860175472964 M388.4677691971593,370.80860175472964 L394.054630525987,373.8974474652698 M394.054630525987,373.8974474652698 L399.2541148196208,377.07804527499616 M399.2541148196208,377.07804527499616 L404.0511386455331,380.34586063663363 M404.0511386455331,380.34586063663363 L408.4308970064367,383.6960601645674 M408.4308970064367,383.6960601645674 L412.37885536183853,387.1235262209065 M412.37885536183853,387.1235262209065 L415.88088751161933,390.6228151091883 M415.88088751161933,390.6228151091883 L418.9232670045749,394.18818580491217 M418.9232670045749,394.18818580491217 L421.4927723290301,397.81357110624003 M421.4927723290301,397.81357110624003 L423.57673350608707,401.4925887764258 M423.57673350608707,401.4925887764258 L425.1631537129516,405.21852407031685 M425.1631537129516,405.21852407031685 L426.2407051321568,408.9843516621769 M426.2407051321568,408.9843516621769 L426.7989225842608,412.7827267906484 M426.7989225842608,412.7827267906484 L426.82816850069935,416.60597789512155 M426.82816850069935,416.60597789512155 L426.3198199867909,420.4461358670384 M426.3198199867909,420.4461358670384 L425.2662993179906,424.29492708016664 M425.2662993179906,424.29492708016664 L423.66120051976543,428.14380135097775 M423.66120051976543,428.14380135097775 L421.4993215591244,431.98392018497026 M421.4993215591244,431.98392018497026 L418.77685682381866,435.80621420945823 M418.77685682381866,435.80621420945823 L415.491374940342,439.6013649534242 M415.491374940342,439.6013649534242 L411.64198902917235,443.3598553670741 M411.64198902917235,443.3598553670741 L407.2293973940174,447.0719920077548 M407.2293973940174,447.0719920077548 L402.25595892480624,450.72792777056185 M402.25595892480624,450.72792777056185 L396.72582384466193,454.31771374009327 M396.72582384466193,454.31771374009327 L390.6449344910118,457.83131904403683 M390.6449344910118,457.83131904403683 L384.0210884023304,461.2586754642146 M384.0210884023304,461.2586754642146 L376.8640588240389,464.58973758415476 M396.93138631723343,471.1016518038007 L376.8640588240389,464.58973758415476 M376.8640588240389,464.58973758415476 L376.3771297164129,478.282226046078" stroke="black"  stroke-width="4"  fill="red"/>
<path d="M398.29255262864694,436.3227055444214 L396.93138631723343,471.1016518038007 M362.84615627415235,319.8396892974327 L370.80048824891696,322.2365007654193 M370.80048824891696,322.2365007654193 L378.4769528922873,324.74071765509456 M378.4769528922873,324.74071765509456 L385.8608953502445,327.3499725170255 M385.8608953502445,327.3499725170255 L392.93763736998244,330.0616987387372 M392.93763736998244,330.0616987387372 L399.69246462672186,332.8731314958831 M399.69246462672186,332.8731314958831 L406.11066525043793,335.78129920453796 M406.11066525043793,335.78129920453796 L412.1775473213256,338.78300033779004 M412.1775473213256,338.78300033779004 L417.8784866554164,341.8748163406179 M417.8784866554164,341.8748163406179 L423.1989253428105,345.0530805399201 M423.1989253428105,345.0530805399201 L428.1244637329346,348.31387776062496 M428.1244637329346,348.31387776062496 L432.64086734785565,351.6530350083339 M432.64086734785565,351.6530350083339 L436.73410237759424,355.0661189861928 M436.73410237759424,355.0661189861928 L440.39044777905303,358.54841471671654 M440.39044777905303,358.54841471671654 L443.5964639081375,362.094941663454 M443.5964639081375,362.094941663454 L446.33910440438774,365.7004228113172 M446.33910440438774,365.7004228113172 L448.6057703798581,369.3592916526164 M448.6057703798581,369.3592916526164 L450.3843620352503,373.0656988470592 M450.3843620352503,373.0656988470592 L451.66343379638124,376.8134907750783 M451.66343379638124,376.8134907750783 L452.43208025489355,380.5962188279757 M452.43208025489355,380.5962188279757 L452.68020921531354,384.4071511213466 M452.68020921531354,384.4071511213466 L452.3985206005327,388.23925567084825 M452.3985206005327,388.23925567084825 L451.57861213840795,392.0852158664736 M451.57861213840795,392.0852158664736 L450.21308300282465,395.9374514232658 M450.21308300282465,395.9374514232658 L448.2955405747342,399.7881005539127 M448.2955405747342,399.7881005539127 L445.8207977853266,403.6290580890777 M445.8207977853266,403.6290580890777 L442.7848815699606,407.45197503269657 M442.7848815699606,407.45197503269657 L439.18513408000945,411.24828306604263 M439.18513408000945,411.24828306604263 L435.0203349516237,415.00921476216826 M435.0203349516237,415.00921476216826 L430.2907301493634,418.72583865581004 M430.2907301493634,418.72583865581004 L424.99812973980636,422.3890585255997 M424.99812973980636,422.3890585255997 L419.1459804466523,425.98967156658296 M419.1459804466523,425.98967156658296 L412.73943109963193,429.51838362319 M412.73943109963193,429.51838362319 L405.7853758133107,432.9658455246394 M405.7853758133107,432.9658455246394 L398.29255262864694,436.3227055444214 M362.84615627415235,319.8396892974327 L361.8815250801989,349.7292493255436 M396.93138631723343,471.1016518038007 L404.3849726217601,467.60716754636155 M404.3849726217601,467.60716754636155 L411.3036345265283,464.0181644750997 M411.3036345265283,464.0181644750997 L417.6786373456873,460.3443629235704 M417.6786373456873,460.3443629235704 L423.503074040555,456.59548247067005 M423.503074040555,456.59548247067005 L428.7717679224661,452.78118743918475 M428.7717679224661,452.78118743918475 L433.4812304755535,448.9110491496603 M433.4812304755535,448.9110491496603 L437.6295970103589,444.99453012056 M437.6295970103589,444.99453012056 L441.21655534715524,441.04092352658165 M441.21655534715524,441.04092352658165 L444.2432492942545,437.05935395483783 M444.2432492942545,437.05935395483783 L446.71225071414824,433.05874086984466 M446.71225071414824,433.05874086984466 L448.62743865730033,429.04777752479436 M448.62743865730033,429.04777752479436 L449.99389940511867,425.03490538278584 M449.99389940511867,425.03490538278584 L450.81791864783327,421.02831450759743 M450.81791864783327,421.02831450759743 L451.1067859055046,417.035903763917 M451.1067859055046,417.035903763917 L450.86878826636234,413.06529928621995 M450.86878826636234,413.06529928621995 L450.1131078455303,409.1238325393659 M450.1131078455303,409.1238325393659 L448.8497171463663,405.21852407031685 M448.8497171463663,405.21852407031685 L447.08940037482455,401.35610090683 M447.08940037482455,401.35610090683 L444.84348226814257,397.54298421607734 M444.84348226814257,397.54298421607734 L442.1239418205322,393.7852794806536 M442.1239418205322,393.7852794806536 L438.9432581984288,390.08879870587356 M438.9432581984288,390.08879870587356 L435.31435961908403,386.4590533357244 M435.31435961908403,386.4590533357244 L431.25056962960537,382.90124682576356 M431.25056962960537,382.90124682576356 L426.7654958790539,379.42030673010447 M426.7654958790539,379.42030673010447 L421.87306143417686,376.0208677573346 M421.87306143417686,376.0208677573346 L416.5873932887248,372.70729391989045 M416.5873932887248,372.70729391989045 L410.9227870700422,369.48368099177327 M410.9227870700422,369.48368099177327 L404.89370013535836,366.3538660958298 M404.89370013535836,366.3538660958298 L398.51466003713847,363.3214279816683 M398.51466003713847,363.3214279816683 L391.80026585870564,360.38971932774973 M391.80026585870564,360.38971932774973 L384.7651406262688,357.5618531657829 M384.7651406262688,357.5618531657829 L377.4239137654939,354.84072695218737 M377.4239137654939,354.84072695218737 L369.7911826489866,352.2290313859248 M369.7911826489866,352.2290313859248 L361.8815250801989,349.7292493255436 M396.93138631723343,471.1016518038007 L385.83229079101943,467.49995855357224 M395.3858031759602,435.42261331656397 L385.83229079101943,467.49995855357224 M398.29255262864694,436.3227055444214 L395.3858031759602,435.42261331656397 M360.8201645656874,320.47839176823686 L362.84615627415235,319.8396892974327 M360.8201645656874,320.47839176823686 L368.8986185089076,322.92316401794614 M368.8986185089076,322.92316401794614 L376.6841490452397,325.4802260768568 M376.6841490452397,325.4802260768568 L384.1609833097624,328.1469679088471 M384.1609833097624,328.1469679088471 L391.3132662525928,330.9205844031588 M391.3132662525928,330.9205844031588 L398.12516323082446,333.7980246771703 M398.12516323082446,333.7980246771703 L404.5808247435947,336.7760193718102 M404.5808247435947,336.7760193718102 L410.6644916211267,339.8510336756504 M410.6644916211267,339.8510336756504 L416.36042760315297,343.01929816561534 M416.36042760315297,343.01929816561534 L421.6530629051838,346.2767533265422 M421.6530629051838,346.2767533265422 L426.5269546621032,349.619085460091 M426.5269546621032,349.619085460091 L430.966923448394,353.0416729349746 M430.966923448394,353.0416729349746 L434.9580198780151,356.53960647133755 M434.9580198780151,356.53960647133755 L438.4856423075188,360.107681085097 M438.4856423075188,360.107681085097 L441.5355771166105,363.74037327091656 M441.5355771166105,363.74037327091656 L444.09407632213856,367.43184299181644 M444.09407632213856,367.43184299181644 L446.14791762434004,371.1759306204973 M446.14791762434004,371.1759306204973 L447.6845120094523,374.96616699780793 M447.6845120094523,374.96616699780793 L448.69194519943017,378.79573241835334 M448.69194519943017,378.79573241835334 L449.1590847008322,382.6575115630805 M449.1590847008322,382.6575115630805 L449.0756767476935,386.544056484575 M449.0756767476935,386.544056484575 L448.432417877631,390.44760472046636 M448.432417877631,390.44760472046636 L447.22106348005,394.3600887109062 M447.22106348005,394.3600887109062 L445.4345207591821,398.27315555499376 M445.4345207591821,398.27315555499376 L443.06695702067225,402.1781629322619 M443.06695702067225,402.1781629322619 L440.1138329069597,406.0661946935095 M440.1138329069597,406.0661946935095 L436.572118638294,409.9281155174129 M436.572118638294,409.9281155174129 L432.44025489988417,413.7545410441128 M432.44025489988417,413.7545410441128 L427.71837711052535,417.53592025783024 M427.71837711052535,417.53592025783024 L422.4082480234026,421.2625092021727 M422.4082480234026,421.2625092021727 L416.5134910487445,424.9244566129087 M416.5134910487445,424.9244566129087 L410.03955139805,428.5117936358242 M410.03955139805,428.5117936358242 L402.99386731127936,432.0145240428149 M402.99386731127936,432.0145240428149 L395.3858031759602,435.42261331656397 M354.079974935598,352.3063906092657 L360.8201645656874,320.47839176823686 M354.079974935598,352.3063906092657 L361.8815250801989,349.7292493255436 M385.83229079101943,467.49995855357224 L393.10569209855555,464.1051659324057 M393.10569209855555,464.1051659324057 L399.8482618380814,460.6153658401669 M399.8482618380814,460.6153658401669 L406.0508036298961,457.0403780828803 M406.0508036298961,457.0403780828803 L411.7059786191595,453.39001875874465 M411.7059786191595,453.39001875874465 L416.80820458817607,449.67405951481027 M416.80820458817607,449.67405951481027 L421.35365992578033,445.9021952960844 M421.35365992578033,445.9021952960844 L425.34016416044915,442.08400044737687 M425.34016416044915,442.08400044737687 L428.7671954756395,438.22891751142004 M428.7671954756395,438.22891751142004 L431.635708840896,434.3461936570573 M431.635708840896,434.3461936570573 L433.94813138264055,430.4448944514063 M433.94813138264055,430.4448944514063 L435.7082055076187,426.53383726293936 M435.7082055076187,426.53383726293936 L436.9209990518808,422.62160473882557 M436.9209990518808,422.62160473882557 L437.59273720787894,418.71652455979836 M437.59273720787894,418.71652455979836 L437.730772985881,414.8266352059026 M437.730772985881,414.8266352059026 L437.34345493385354,410.9596947560229 M437.34345493385354,410.9596947560229 L436.4400438364422,407.12315263495407 M436.4400438364422,407.12315263495407 L435.0306730334597,403.3241536430695 M435.0306730334597,403.3241536430695 L433.1262380570305,399.5695601050846 M433.1262380570305,399.5695601050846 L430.7382991691327,395.86589764702927 M430.7382991691327,395.86589764702927 L427.8790543575067,392.2193821507953 M427.8790543575067,392.2193821507953 L424.56123157199397,388.63593076305 M424.56123157199397,388.63593076305 L420.7980060810703,385.12114673701825 M420.7980060810703,385.12114673701825 L416.60299384082055,381.6803423972386 M416.60299384082055,381.6803423972386 L411.9901236579161,378.318526706186 M411.9901236579161,378.318526706186 L406.9736561130277,375.04041011854616 M406.9736561130277,375.04041011854616 L401.56806373853,371.85044060887464 M401.56806373853,371.85044060887464 L395.78802479434,368.7527752396236 M395.78802479434,368.7527752396236 L389.6483353495329,365.75132227883745 M389.6483353495329,365.75132227883745 L383.16394514707633,362.84972263511605 M383.16394514707633,362.84972263511605 L376.3498549586699,360.05137678597634 M376.3498549586699,360.05137678597634 L369.2211290101833,357.3594479219699 M369.2211290101833,357.3594479219699 L361.7928169191871,354.7768765694868 M361.7928169191871,354.7768765694868 L354.079974935598,352.3063906092657" stroke="black"  stroke-width="4"  fill="red"/></svg>